<svg xmlns="http://www.w3.org/2000/svg" xmlns:xlink="http://www.w3.org/1999/xlink" width="128" height="128" viewBox="0 0 128 128"><defs><linearGradient id="a" x1="63.9997" y1="7.0336" x2="63.9997" y2="120.7894" gradientUnits="userSpaceOnUse"><stop offset="0" stop-color="#4387fd"/><stop offset="1" stop-color="#4683ea"/></linearGradient></defs><title>spanner</title><path d="M27.7906,115.2166L1.54,69.7493a11.499,11.499,0,0,1,0-11.499L27.7906,12.7831a11.4991,11.4991,0,0,1,9.9585-5.75H90.25a11.4991,11.4991,0,0,1,9.9585,5.75L126.4594,58.25a11.499,11.499,0,0,1,0,11.499l-26.2506,45.4672a11.4991,11.4991,0,0,1-9.9585,5.75H37.7491A11.4991,11.4991,0,0,1,27.7906,115.2166Z" fill="url(#a)"/><path d="M74,38.855l-3.7938,5.8281L61,35.4769l-2.2026,8.9152L54,48.9894l9.8034,9.8034,0.1379,9.1343L55.375,70.25,46,68.5293l-8.9128,8.24,4.8514,4.8514-1.8514.3447,39.0005,39.0006H90.25a11.4991,11.4991,0,0,0,9.9585-5.75L118.566,83.4211Z" opacity="0.07"/><polygon points="83.49 72.609 90.804 76.832 91.378 69.081 82.602 64.014 76.898 67.714 67.872 62.502 67.872 52.116 74 48.989 74 38.855 67 35.477 67 43.922 64 45.611 61 43.922 61 35.477 54 38.855 54 48.989 60.056 52.079 60.056 62.502 51.061 67.695 45.289 63.951 36.513 69.018 37.087 76.769 44.401 72.547 47.364 74.3 47.401 77.743 40.087 81.965 46.513 86.339 55.289 81.271 54.937 74.482 63.964 69.271 72.958 74.464 72.602 81.334 81.378 86.401 87.804 82.028 80.49 77.806 80.527 74.363 83.49 72.609" fill="#fff"/></svg>
